HIERARCHY
ROOT hip
{
  OFFSET 0 0 0
  CHANNELS 6 Xposition Yposition Zposition Zrotation Yrotation Xrotation
  JOINT abdomen
  {
    OFFSET 0 20.6881 -0.73152
    CHANNELS 3 Zrotation Xrotation Yrotation
    JOINT chest
    {
      OFFSET 0 11.7043 -0.48768
      CHANNELS 3 Zrotation Xrotation Yrotation
      JOINT neck
      {
        OFFSET 0 22.1894 -2.19456
        CHANNELS 3 Zrotation Xrotation Yrotation
        JOINT head
        {
          OFFSET -0.24384 7.07133 1.2192
          CHANNELS 3 Zrotation Xrotation Yrotation
          JOINT leftEye
          {
            OFFSET 4.14528 8.04674 8.04672
            CHANNELS 3 Zrotation Xrotation Yrotation
            End Site
            {
              OFFSET 1 0 0
            }
          }
          JOINT rightEye
          {
            OFFSET -3.6576 8.04674 8.04672
            CHANNELS 3 Zrotation Xrotation Yrotation
            End Site
            {
              OFFSET 1 0 0
            }
          }
        }
      }
      JOINT rCollar
      {
        OFFSET -2.68224 19.2634 -4.8768
        CHANNELS 3 Zrotation Xrotation Yrotation
        JOINT rShldr
        {
          OFFSET -8.77824 -1.95073 1.46304
          CHANNELS 3 Zrotation Xrotation Yrotation
          JOINT rForeArm
          {
            OFFSET -28.1742 -1.7115 0.48768
            CHANNELS 3 Zrotation Xrotation Yrotation
            JOINT rHand
            {
              OFFSET -22.5879 0.773209 7.07136
              CHANNELS 3 Zrotation Xrotation Yrotation
              JOINT rThumb1
              {
                OFFSET -1.2192 -0.487915 3.41376
                CHANNELS 3 Zrotation Xrotation Yrotation
                JOINT rThumb2
                {
                  OFFSET -3.37035 -0.52449 3.41376
                  CHANNELS 3 Zrotation Xrotation Yrotation
                  End Site
                  {
                    OFFSET -1.78271 -1.18214 1.43049
                  }
                }
              }
              JOINT rIndex1
              {
                OFFSET -7.75947 0.938293 5.60832
                CHANNELS 3 Zrotation Xrotation Yrotation
                JOINT rIndex2
                {
                  OFFSET -2.54057 -0.884171 1.56538
                  CHANNELS 3 Zrotation Xrotation Yrotation
                  End Site
                  {
                    OFFSET -1.62519 -0.234802 1.16502
                  }
                }
              }
              JOINT rMid1
              {
                OFFSET -8.24714 1.18213 3.41376
                CHANNELS 3 Zrotation Xrotation Yrotation
                JOINT rMid2
                {
                  OFFSET -3.10165 -0.590103 1.0647
                  CHANNELS 3 Zrotation Xrotation Yrotation
                  End Site
                  {
                    OFFSET -2.48547 -0.328903 0.83742
                  }
                }
              }
              JOINT rRing1
              {
                OFFSET -8.82822 0.546677 1.51678
                CHANNELS 3 Zrotation Xrotation Yrotation
                JOINT rRing2
                {
                  OFFSET -2.60934 -0.819778 -0.0198488
                  CHANNELS 3 Zrotation Xrotation Yrotation
                  End Site
                  {
                    OFFSET -2.33842 -0.294052 0.168128
                  }
                }
              }
              JOINT rPinky1
              {
                OFFSET -8.27202 -0.0477905 -0.4584
                CHANNELS 3 Zrotation Xrotation Yrotation
                JOINT rPinky2
                {
                  OFFSET -1.82734 -0.647385 -0.700984
                  CHANNELS 3 Zrotation Xrotation Yrotation
                  End Site
                  {
                    OFFSET -1.69225 -0.51767 -0.607171
                  }
                }
              }
            }
          }
        }
      }
      JOINT lCollar
      {
        OFFSET 2.68224 19.2634 -4.8768
        CHANNELS 3 Zrotation Xrotation Yrotation
        JOINT lShldr
        {
          OFFSET 8.77824 -1.95073 1.46304
          CHANNELS 3 Zrotation Xrotation Yrotation
          JOINT lForeArm
          {
            OFFSET 28.1742 -1.7115 0.48768
            CHANNELS 3 Zrotation Xrotation Yrotation
            JOINT lHand
            {
              OFFSET 22.5879 0.773209 7.07136
              CHANNELS 3 Zrotation Xrotation Yrotation
              JOINT lThumb1
              {
                OFFSET 1.2192 -0.487915 3.41376
                CHANNELS 3 Zrotation Xrotation Yrotation
                JOINT lThumb2
                {
                  OFFSET 3.37035 -0.52449 3.41376
                  CHANNELS 3 Zrotation Xrotation Yrotation
                  End Site
                  {
                    OFFSET 1.78271 -1.18214 1.43049
                  }
                }
              }
              JOINT lIndex1
              {
                OFFSET 7.75947 0.938293 5.60832
                CHANNELS 3 Zrotation Xrotation Yrotation
                JOINT lIndex2
                {
                  OFFSET 2.54057 -0.884171 1.56538
                  CHANNELS 3 Zrotation Xrotation Yrotation
                  End Site
                  {
                    OFFSET 1.62519 -0.234802 1.16502
                  }
                }
              }
              JOINT lMid1
              {
                OFFSET 8.24714 1.18213 3.41376
                CHANNELS 3 Zrotation Xrotation Yrotation
                JOINT lMid2
                {
                  OFFSET 3.10165 -0.590103 1.0647
                  CHANNELS 3 Zrotation Xrotation Yrotation
                  End Site
                  {
                    OFFSET 2.48547 -0.328903 0.83742
                  }
                }
              }
              JOINT lRing1
              {
                OFFSET 8.82822 0.546677 1.51678
                CHANNELS 3 Zrotation Xrotation Yrotation
                JOINT lRing2
                {
                  OFFSET 2.60934 -0.819778 -0.0198488
                  CHANNELS 3 Zrotation Xrotation Yrotation
                  End Site
                  {
                    OFFSET 2.33842 -0.294052 0.168128
                  }
                }
              }
              JOINT lPinky1
              {
                OFFSET 8.27202 -0.0477905 -0.4584
                CHANNELS 3 Zrotation Xrotation Yrotation
                JOINT lPinky2
                {
                  OFFSET 1.82734 -0.647385 -0.700984
                  CHANNELS 3 Zrotation Xrotation Yrotation
                  End Site
                  {
                    OFFSET 1.69225 -0.51767 -0.607171
                  }
                }
              }
            }
          }
        }
      }
    }
  }
  JOINT rButtock
  {
    OFFSET -8.77824 4.35084 1.2192
    CHANNELS 3 Zrotation Xrotation Yrotation
    JOINT rThigh
    {
      OFFSET 0 -1.70687 -2.19456
      CHANNELS 3 Zrotation Xrotation Yrotation
      JOINT rShin
      {
        OFFSET 0 -36.8199 0.73152
        CHANNELS 3 Zrotation Xrotation Yrotation
        JOINT rFoot
        {
          OFFSET 0.73152 -45.1104 -5.12064
          CHANNELS 3 Zrotation Xrotation Yrotation
          End Site
          {
            OFFSET -1.1221 -3.69964 12.103
          }
        }
      }
    }
  }
  JOINT lButtock
  {
    OFFSET 8.77824 4.35084 1.2192
    CHANNELS 3 Zrotation Xrotation Yrotation
    JOINT lThigh
    {
      OFFSET 0 -1.70687 -2.19456
      CHANNELS 3 Zrotation Xrotation Yrotation
      JOINT lShin
      {
        OFFSET 0 -36.8199 0.73152
        CHANNELS 3 Zrotation Xrotation Yrotation
        JOINT lFoot
        {
          OFFSET -0.73152 -45.1104 -5.12064
          CHANNELS 3 Zrotation Xrotation Yrotation
          End Site
          {
            OFFSET 1.1221 -3.69964 12.103
          }
        }
      }
    }
  }
}
MOTION
Frames:	4
Frame Time:	0.03333
-0.22408999502658844 56.997501850128174 -2.2086000069975853 -5.798897743225098 -9.742022514343262 7.8883957862854 -4.460129737854004 17.430492401123047 1.6942466497421265 6.960651874542236 -9.192667961120605 0.7566023468971252 -6.4036102294921875 13.76711654663086 1.5130618810653687 11.127335548400879 -37.38728713989258 7.133649826049805 -0.0 0.0 -0.0 -0.0 0.0 -0.0 -0.0 0.0 -0.0 14.70099925994873 32.0432014465332 71.7118911743164 -22.90929412841797 -17.186298370361328 46.325599670410156 -0.15008544921875 10.976766586303711 1.5619207620620728 -0.0 0.0 -0.0 -0.0 0.0 -0.0 -0.0 0.0 -0.0 7.730876445770264 5.474894046783447 0.41732466220855713 -0.0 0.0 -0.0 2.9054994583129883 0.9650753736495972 0.10300876200199127 -0.0 0.0 -0.0 10.278595924377441 0.7317469120025635 0.026285571977496147 -0.0 0.0 -0.0 2.221662998199463 -0.7335850596427917 -0.20831838250160217 -0.0 0.0 -0.0 7.439326286315918 -2.9666242599487305 -120.95098876953125 25.855993270874023 -46.539100646972656 -96.71419525146484 0.02788088284432888 7.494244575500488 -1.0311038494110107 -0.0 0.0 -0.0 -0.0 0.0 -0.0 -0.0 0.0 -0.0 -7.730876445770264 5.474894046783447 -0.41732466220855713 -0.0 0.0 -0.0 -2.9054994583129883 0.9650753736495972 -0.10300876200199127 -0.0 0.0 -0.0 -10.278595924377441 0.7317469120025635 -0.026285571977496147 -0.0 0.0 -0.0 -2.221662998199463 -0.7335850596427917 0.20831838250160217 -0.0 0.0 -0.0 -7.634988307952881 -43.79640197753906 -12.586875915527344 -170.92156982421875 82.93099975585938 172.0818634033203 -5.018731117248535 -8.63327693939209 -23.416397094726562 -0.0 0.0 -0.0 28.32447624206543 -58.54059982299805 40.762786865234375 4.553768634796143 79.00624084472656 -4.936350345611572 7.854815483093262 -7.951930999755859 28.133893966674805
-0.5048000020906329 57.1694016456604 -4.293600097298622 -6.261481761932373 -12.133001327514648 8.401799201965332 -4.517723560333252 16.657697677612305 2.4838855266571045 6.817529678344727 -9.254301071166992 0.932009756565094 -6.572376251220703 13.34109878540039 1.9446659088134766 11.579306602478027 -36.61570358276367 8.13853931427002 -0.0 0.0 -0.0 -0.0 0.0 -0.0 -0.0 0.0 -0.0 10.178102493286133 33.52759552001953 76.45848846435547 -23.045093536376953 -17.411714553833008 46.71649169921875 -0.10386233031749725 9.153159141540527 1.2974666357040405 -0.0 0.0 -0.0 -0.0 0.0 -0.0 -0.0 0.0 -0.0 7.730876445770264 5.474894046783447 0.41732466220855713 -0.0 0.0 -0.0 2.9054994583129883 0.9650753736495972 0.10300876200199127 -0.0 0.0 -0.0 10.278595924377441 0.7317469120025635 0.026285571977496147 -0.0 0.0 -0.0 2.221662998199463 -0.7335850596427917 -0.20831838250160217 -0.0 0.0 -0.0 7.791756629943848 -7.282815933227539 -120.95499420166016 26.170291900634766 -45.93589401245117 -95.41050720214844 0.4464118778705597 18.647905349731445 -2.7184507846832275 -0.0 0.0 -0.0 -0.0 0.0 -0.0 -0.0 0.0 -0.0 -7.730876445770264 5.474894046783447 -0.41732466220855713 -0.0 0.0 -0.0 -2.9054994583129883 0.9650753736495972 -0.10300876200199127 -0.0 0.0 -0.0 -10.278595924377441 0.7317469120025635 -0.026285571977496147 -0.0 0.0 -0.0 -2.221662998199463 -0.7335850596427917 0.20831838250160217 -0.0 0.0 -0.0 -8.650125503540039 -36.83388900756836 -10.918127059936523 -167.57177734375 85.11608123779297 168.92286682128906 -4.1558837890625 -7.707828044891357 -23.27150535583496 -0.0 0.0 -0.0 33.23909378051758 -58.862586975097656 45.506385803222656 4.325547695159912 78.27301788330078 -4.495855808258057 7.02186918258667 -6.318631172180176 27.3804988861084
-0.8205800084397197 57.28899836540222 -6.286700069904327 -6.742609024047852 -14.815403938293457 8.83840560913086 -4.414376258850098 15.813610076904297 3.531280040740967 6.358388900756836 -9.365852355957031 1.170880675315857 -6.605457305908203 12.987990379333496 2.3937277793884277 11.909194946289062 -35.57310104370117 9.081698417663574 -0.0 0.0 -0.0 -0.0 0.0 -0.0 -0.0 0.0 -0.0 4.726598262786865 34.53439712524414 82.00199890136719 -23.177284240722656 -17.62920570373535 47.13460159301758 -0.08813371509313583 8.437297821044922 1.194785237312317 -0.0 0.0 -0.0 -0.0 0.0 -0.0 -0.0 0.0 -0.0 7.730876445770264 5.474894046783447 0.41732466220855713 -0.0 0.0 -0.0 2.9054994583129883 0.9650753736495972 0.10300876200199127 -0.0 0.0 -0.0 10.278595924377441 0.7317469120025635 0.026285571977496147 -0.0 0.0 -0.0 2.221662998199463 -0.7335850596427917 -0.20831838250160217 -0.0 0.0 -0.0 8.435457229614258 -10.73659896850586 -119.69698333740234 26.536785125732422 -45.17961120605469 -93.79129028320312 0.9352433681488037 25.848981857299805 -3.908486843109131 -0.0 0.0 -0.0 -0.0 0.0 -0.0 -0.0 0.0 -0.0 -7.730876445770264 5.474894046783447 -0.41732466220855713 -0.0 0.0 -0.0 -2.9054994583129883 0.9650753736495972 -0.10300876200199127 -0.0 0.0 -0.0 -10.278595924377441 0.7317469120025635 -0.026285571977496147 -0.0 0.0 -0.0 -2.221662998199463 -0.7335850596427917 0.20831838250160217 -0.0 0.0 -0.0 -9.96007251739502 -30.086685180664062 -9.258636474609375 -137.1522216796875 88.58818817138672 138.7091064453125 -3.1281251907348633 -6.000951290130615 -23.606698989868164 -0.0 0.0 -0.0 38.48591232299805 -58.574806213378906 50.52691650390625 4.156523704528809 77.68421936035156 -4.169260501861572 6.346219062805176 -4.868606090545654 26.904600143432617
-1.1878800112754107 57.33339786529541 -8.23570005595684 -7.325097560882568 -17.709491729736328 9.271613121032715 -4.104286193847656 14.941384315490723 4.7677435874938965 5.612837314605713 -9.568760871887207 1.456145167350769 -6.422454357147217 12.658705711364746 2.8431599140167236 12.069686889648438 -34.25679397583008 9.911870956420898 -0.0 0.0 -0.0 -0.0 0.0 -0.0 -0.0 0.0 -0.0 -0.7593868374824524 35.037200927734375 87.52850341796875 -23.46819496154785 -18.13550567626953 47.96879959106445 -0.08525143563747406 8.300450325012207 1.1748353242874146 -0.0 0.0 -0.0 -0.0 0.0 -0.0 -0.0 0.0 -0.0 7.730876445770264 5.474894046783447 0.41732466220855713 -0.0 0.0 -0.0 2.9054994583129883 0.9650753736495972 0.10300876200199127 -0.0 0.0 -0.0 10.278595924377441 0.7317469120025635 0.026285571977496147 -0.0 0.0 -0.0 2.221662998199463 -0.7335850596427917 -0.20831838250160217 -0.0 0.0 -0.0 9.291580200195312 -12.914896011352539 -117.4179916381836 26.845596313476562 -44.41649627685547 -92.27619171142578 1.3281145095825195 30.837308883666992 -4.812948226928711 -0.0 0.0 -0.0 -0.0 0.0 -0.0 -0.0 0.0 -0.0 -7.730876445770264 5.474894046783447 -0.41732466220855713 -0.0 0.0 -0.0 -2.9054994583129883 0.9650753736495972 -0.10300876200199127 -0.0 0.0 -0.0 -10.278595924377441 0.7317469120025635 -0.026285571977496147 -0.0 0.0 -0.0 -2.221662998199463 -0.7335850596427917 0.20831838250160217 -0.0 0.0 -0.0 -11.706304550170898 -23.739910125732422 -7.937852382659912 -12.152728080749512 85.9925308227539 13.912334442138672 -2.0793817043304443 -4.127519607543945 -24.177797317504883 -0.0 0.0 -0.0 43.79936599731445 -57.78929901123047 55.48077392578125 4.022082805633545 77.19647216796875 -3.916107177734375 5.753092288970947 -3.542872190475464 26.588193893432617
